<svg xmlns="http://www.w3.org/2000/svg" aria-hidden="true" style="position:absolute;width:0;height:0;overflow:hidden"><defs>
<symbol id="icon-logo-chocolate" viewBox="0 0 32 32">
<path fill="#fcf1e0" d="M3.944 20.076 14.72 2.651l.64-.674 8.236 5.489.056 3.314 2.011 3.279-8.881 14.077-12.84-8.062z" style="fill:var(--color1, #fcf1e0)"/><path fill="none" stroke="#fd9222" stroke-linecap="round" stroke-linejoin="round" stroke-width="2.743" d="M21.635 23.88 7.448 15.016m3.914-6.417 14.185 8.864M10.63 25.864l11.736-19.25m4.811 8.175c-3.04-1.897-4.235-3.383-2.278-6.59l-9.626-6.014L3.535 21.434l14.187 8.864 9.454-15.508z" style="stroke:var(--color2, #fd9222)"/></symbol>
<symbol id="icon-x-close" viewBox="0 0 32 32">
<path d="M7.799 6.827c-.326.073-.712.408-.917.794-.096.182-.085.594.024.809.05.101 1.751 1.845 3.778 3.875l3.687 3.694-3.687 3.694c-2.027 2.031-3.728 3.775-3.778 3.875-.117.232-.118.629-.003.851.114.221.456.562.677.677.223.114.619.113.851-.003.101-.05 1.845-1.751 3.875-3.778L16 17.628l3.694 3.687c2.031 2.027 3.775 3.728 3.875 3.778.232.117.629.118.851.003.221-.114.562-.456.677-.677.114-.223.113-.619-.003-.851-.05-.101-1.751-1.845-3.778-3.875l-3.687-3.694 3.687-3.694c2.027-2.031 3.728-3.775 3.778-3.875.117-.232.118-.629.003-.851a2.07 2.07 0 0 0-.668-.671l-.009-.005c-.223-.114-.619-.113-.851.003-.101.05-1.845 1.751-3.875 3.778L16 14.371l-3.694-3.687c-2.031-2.027-3.765-3.721-3.853-3.765a.976.976 0 0 0-.661-.091l.006-.001z"/></symbol>
<symbol id="icon-scroll-down" viewBox="0 0 32 32">
<path fill="#fd9222" d="M16.946 17.868c-.242.243-.576.393-.946.393s-.704-.15-.946-.393l-6.108-6.12a1.334 1.334 0 1 0-1.893 1.879l6.12 6.12c.724.722 1.723 1.169 2.826 1.169s2.102-.447 2.826-1.169l6.12-6.12a1.334 1.334 0 0 0-1.893-1.879l-6.108 6.12z" style="fill:var(--color2, #fd9222)"/></symbol>
<symbol id="icon-instagram" viewBox="0 0 32 32">
<path d="M8.084 1.684c-3.322.559-5.857 3.12-6.407 6.474-.111.673-.111 15.009 0 15.683.337 2.065 1.408 3.833 3.059 5.055a7.6 7.6 0 0 0 3.355 1.417l.044.006c.756.122 14.973.122 15.729 0a7.564 7.564 0 0 0 4.269-2.182l.001-.001a7.544 7.544 0 0 0 2.178-4.228l.005-.042c.122-.756.122-14.973 0-15.729a7.564 7.564 0 0 0-2.182-4.269l-.001-.001a7.477 7.477 0 0 0-3.25-1.955l-.053-.013c-1.05-.304-.826-.297-8.897-.291-5.911.006-7.514.022-7.85.079zm15.072 2.104a5.48 5.48 0 0 1 3.318 1.491 5.541 5.541 0 0 1 1.737 3.543l.002.022c.073.768.073 13.545 0 14.313a5.544 5.544 0 0 1-1.735 3.562l-.003.003a5.448 5.448 0 0 1-3.297 1.489l-.02.001c-.807.077-13.567.073-14.332-.004a5.59 5.59 0 0 1-4.871-4.089l-.009-.039c-.196-.726-.211-1.313-.211-8.08s.015-7.354.211-8.08C4.55 5.686 6.5 4.01 8.747 3.792c.676-.065 13.724-.07 14.41-.004zm-.302 3.866c-.388.137-.614.509-.614 1.012 0 .7.409 1.097 1.12 1.091.681-.006 1.065-.399 1.065-1.091 0-.346-.121-.679-.307-.845-.265-.234-.854-.313-1.264-.167zm-7.459 1.895a6.487 6.487 0 0 0-5.074 3.508l-.017.037c-.739 1.469-.863 3.388-.319 4.932.772 2.189 2.535 3.734 4.815 4.217.608.129 1.744.14 2.381.022a6.476 6.476 0 0 0 4.856-3.971l.015-.044c.267-.686.422-1.48.422-2.31a6.5 6.5 0 0 0-.463-2.418l.015.044a6.491 6.491 0 0 0-3.082-3.358l-.037-.017a6.389 6.389 0 0 0-2.877-.674c-.225 0-.446.011-.665.034l.027-.002zm1.671 2.276c1.536.362 2.79 1.655 3.123 3.223a4.259 4.259 0 0 1-3.015 4.985c-.269.077-.528.099-1.148.099-.694.001-.848-.015-1.167-.122-1.9-.637-3.02-2.172-3.02-4.138 0-1.04.33-1.887 1.081-2.764.959-1.123 2.631-1.641 4.145-1.283z"/></symbol>
<symbol id="icon-twitter" viewBox="0 0 32 32">
<path d="M21.181 2.83a7.777 7.777 0 0 0-2.479.748l.045-.02c-1.328.661-2.518 1.859-3.208 3.23-.426.843-.712 2.014-.712 2.904v.44h-.21a6.527 6.527 0 0 1-.661-.058l.034.004c-1.707-.227-3.68-.906-4.88-1.68-1.224-.789-2.542-2.126-3.867-3.925-.568-.77-.768-.922-1.19-.914-.533.01-.973.347-1.218.936-.485 1.163-.947 3.179-1.126 4.906-.077.739-.08 2.456-.005 3.211.41 4.12 2.392 7.4 5.872 9.717.293.195.531.371.531.394 0 .061-1.07.493-1.814.733-1.382.445-2.562.635-4.237.683-.589.016-1.146.054-1.24.082-.427.13-.653.498-.654 1.066-.003.645.179.874 1.066 1.342 4.67 2.475 10.075 3.126 14.88 1.792 3.742-1.04 7.115-3.342 9.374-6.4 2.395-3.24 3.691-7.357 3.691-11.73v-.989l.354-.424a11.725 11.725 0 0 0 2.237-4.34l.019-.083c.141-.541.139-.75-.01-1.045-.179-.354-.53-.55-1.027-.576-.434-.022-.466-.01-1.186.454-.557.366-1.2.719-1.871 1.02l-.089.036c-.784.341-.747.341-1.123.035a7.293 7.293 0 0 0-5.328-1.548l.032-.003zm1.416 2.402a5.316 5.316 0 0 1 1.808.617l-.027-.014c.227.133.648.466.963.763.806.757.922.781 2.002.414.389-.131.722-.24.738-.24.066 0-.301.474-.738.952-.25.275-.493.578-.539.675-.091.194-.102.586-.034 1.173.054.464-.019 2.176-.133 3.067-.821 6.512-4.736 11.411-10.632 13.304-2.581.829-5.416.986-8.283.459-.63-.116-1.147-.24-1.654-.386l.119.03c-.045-.016.205-.11.555-.211 1.57-.454 3.934-1.598 4.712-2.282.259-.256.424-.607.438-.996v-.003c0-.525-.179-.702-1.264-1.24-1.493-.742-2.578-1.488-3.526-2.429-1.925-1.904-2.878-4.146-3.078-7.234-.064-.979.062-2.304.389-4.094.014-.083.045-.142.067-.134.021.01.267.269.544.576 1.194 1.323 2.456 2.309 3.826 2.992 1.877.934 3.677 1.403 5.934 1.546 1.382.088 1.886.006 2.168-.352.182-.234.213-.435.24-1.678.037-1.573.155-2.085.696-3.014.307-.525 1.166-1.373 1.685-1.664a4.721 4.721 0 0 1 2.387-.639c.225 0 .446.016.662.046l-.025-.003z"/></symbol>
<symbol id="icon-burger-menu" viewBox="0 0 32 32">
<path d="M3.498 6.936c-.218.065-.503.358-.566.582a2.345 2.345 0 0 0 .003.98l-.003-.016c.066.235.349.515.591.585.25.072 24.699.072 24.959 0 .235-.066.515-.349.585-.591a2.282 2.282 0 0 0-.002-.969l.003.015c-.07-.242-.35-.525-.585-.591-.239-.066-24.762-.064-24.984.003zm0 8c-.218.065-.503.358-.566.582a2.345 2.345 0 0 0 .003.98l-.003-.016c.066.235.349.515.591.585.25.072 24.699.072 24.959 0 .235-.066.515-.349.585-.591a2.282 2.282 0 0 0-.002-.969l.003.015c-.07-.242-.35-.525-.585-.591-.239-.066-24.762-.064-24.984.003zm0 8c-.218.065-.503.358-.566.582a2.345 2.345 0 0 0 .003.98l-.003-.016c.066.235.349.515.591.585.25.072 24.699.072 24.959 0 .235-.066.515-.349.585-.591a2.282 2.282 0 0 0-.002-.969l.003.015c-.07-.242-.35-.525-.585-.591-.239-.066-24.762-.064-24.984.003z"/></symbol>
<symbol id="icon-flag" viewBox="0 0 32 32">
<path fill="gold" d="M31.832 3.725H.243v23.508h31.589V3.725z" style="fill:var(--color3, #ffd700)"/><path fill="#0057b7" d="M.243 3.725h31.589V15.48H.243V3.725z" style="fill:var(--color4, #0057b7)"/></symbol>
<symbol id="icon-mastercard" viewBox="0 0 32 32">
<path fill="#ed0006" d="M16 23.686a9.775 9.775 0 0 1-6.247 2.24h-.034.002C4.376 25.925.044 21.727.044 16.553s4.332-9.37 9.677-9.37c2.397 0 4.589.842 6.279 2.239a9.775 9.775 0 0 1 6.247-2.24h.034-.002c5.345 0 9.679 4.196 9.679 9.372s-4.333 9.372-9.679 9.372h-.034a9.79 9.79 0 0 1-6.262-2.252l.017.013z" style="fill:var(--color5, #ed0006)"/><path fill="#f9a000" d="M16 23.686c2.08-1.719 3.401-4.276 3.401-7.133 0-2.855-1.319-5.414-3.401-7.132a9.775 9.775 0 0 1 6.247-2.24h.034-.002c5.345 0 9.679 4.196 9.679 9.372s-4.333 9.372-9.679 9.372h-.034a9.79 9.79 0 0 1-6.262-2.252l.017.013z" style="fill:var(--color6, #f9a000)"/><path fill="#ff5e00" d="M16 23.686c2.08-1.719 3.401-4.276 3.401-7.133 0-2.855-1.319-5.414-3.401-7.132-2.08 1.718-3.401 4.276-3.401 7.132 0 2.857 1.319 5.414 3.401 7.133z" style="fill:var(--color7, #ff5e00)"/></symbol>
<symbol id="icon-own-production" viewBox="0 0 32 32">
<path fill="#fd9222" d="M15.451 14.106a5.127 5.127 0 0 1-1.176-3.278v-.004c0-4.324 5.181-8.642 10.362-8.642a5.184 5.184 0 0 1 5.181 5.182c0 5.182-4.317 10.364-8.646 10.364h-.003a5.13 5.13 0 0 1-3.287-1.184l.009.007L5.133 29.312a1.73 1.73 0 0 1-2.444-2.446l-.001.001 12.764-12.761z" style="fill:var(--color2, #fd9222)"/></symbol>
<symbol id="icon-affordable-price" viewBox="0 0 32 32">
<path fill="#fd9222" d="M16 2.667c-7.333 0-13.333 6-13.333 13.333s6 13.333 13.333 13.333 13.333-6 13.333-13.333S23.333 2.667 16 2.667zm0 24c-5.867 0-10.667-4.8-10.667-10.667S10.133 5.333 16 5.333 26.667 10.133 26.667 16 21.867 26.667 16 26.667z" style="fill:var(--color2, #fd9222)"/><path fill="#fd9222" d="M17.733 14.667h-3.466c-.667 0-1.2-.534-1.2-1.2 0-.667.533-1.2 1.2-1.2H19.2c.8 0 1.333-.534 1.333-1.334S20 9.6 19.2 9.6h-1.867V8.4c0-.8-.533-1.333-1.333-1.333S14.667 7.6 14.667 8.4v1.2h-.4a3.87 3.87 0 0 0-3.867 3.867 3.87 3.87 0 0 0 3.867 3.866H17.6c.667 0 1.2.534 1.2 1.2 0 .667-.533 1.2-1.2 1.2h-4.933c-.8 0-1.334.534-1.334 1.334s.534 1.333 1.334 1.333h2v1.2c0 .8.533 1.333 1.333 1.333s1.333-.533 1.333-1.333v-1.2h.4a3.87 3.87 0 0 0 3.867-3.867 3.87 3.87 0 0 0-3.867-3.866z" style="fill:var(--color2, #fd9222)"/></symbol>
<symbol id="icon-unsurpassed-taste" viewBox="0 0 32 32">
<path d="m13.822 2.413 7.527 7.536.08-.08a.854.854 0 0 1 1.185-.012l.873.873c.305.305.315.77.083 1.094l-.004.007-.143.192 6.16 6.16c.55.55.55 1.43 0 1.98l-9.43 9.43c-.55.55-1.43.55-1.98 0l-4.447-4.447a.84.84 0 0 1-1.255.071l-2.6-2.6a.854.854 0 0 1-.012-1.185l.006-.007.077-.076-7.527-7.527c-.55-.55-.55-1.43 0-1.98l9.43-9.43c.55-.55 1.43-.55 1.98 0v.001zm6.582 8.48-1.756-1.755a.59.59 0 0 0-.85 0l-3.58 3.58a.603.603 0 0 0 0 .86l1.749 1.749.61-.61-1.565-1.565 3.21-3.22 1.569 1.574.613-.613zm-5.076 5.072-1.754-1.754a.59.59 0 0 0-.85 0l-3.59 3.59c-.24.23-.24.61 0 .85l1.752 1.752.616-.616-1.57-1.564 3.22-3.21 1.564 1.563.612-.611zM8.822 8.193l3.58 3.58c.24.24.62.24.85-.01l3.58-3.58a.579.579 0 0 0 .18-.42h.01c0-.15-.06-.31-.18-.43l-3.58-3.58a.604.604 0 0 0-.86 0l-3.58 3.59c-.24.23-.24.61 0 .85zm-5.07 5.07 3.58 3.58c.24.24.62.24.85 0l3.58-3.58a.579.579 0 0 0 .18-.42v-.01.001h.01c0-.16-.06-.31-.18-.43l-3.58-3.58a.59.59 0 0 0-.85 0l-3.59 3.59c-.24.23-.24.61 0 .85zm6.933 8.754 2.362 2.363 9.636-13.04-.655-.655-11.343 11.332z" style="fill:var(--color8, #000)"/><path fill="#fd9222" d="m13.822 2.413 7.527 7.536.08-.08a.854.854 0 0 1 1.185-.012l.873.873c.305.305.315.77.083 1.094l-.004.007-.143.192 6.16 6.16c.55.55.55 1.43 0 1.98l-9.43 9.43c-.55.55-1.43.55-1.98 0l-4.447-4.447a.84.84 0 0 1-1.255.071l-2.6-2.6a.854.854 0 0 1-.012-1.185l.006-.007.077-.076-7.527-7.527c-.55-.55-.55-1.43 0-1.98l9.43-9.43c.55-.55 1.43-.55 1.98 0v.001zm6.582 8.48-1.756-1.755a.59.59 0 0 0-.85 0l-3.58 3.58a.603.603 0 0 0 0 .86l1.749 1.749.61-.61-1.565-1.565 3.21-3.22 1.569 1.574.613-.613zm-5.076 5.072-1.754-1.754a.59.59 0 0 0-.85 0l-3.59 3.59c-.24.23-.24.61 0 .85l1.752 1.752.616-.616-1.57-1.564 3.22-3.21 1.564 1.563.612-.611zM8.822 8.193l3.58 3.58c.24.24.62.24.85-.01l3.58-3.58a.579.579 0 0 0 .18-.42h.01c0-.15-.06-.31-.18-.43l-3.58-3.58a.604.604 0 0 0-.86 0l-3.58 3.59c-.24.23-.24.61 0 .85zm-5.07 5.07 3.58 3.58c.24.24.62.24.85 0l3.58-3.58a.579.579 0 0 0 .18-.42v-.01.001h.01c0-.16-.06-.31-.18-.43l-3.58-3.58a.59.59 0 0 0-.85 0l-3.59 3.59c-.24.23-.24.61 0 .85zm6.933 8.754 2.362 2.363 9.636-13.04-.655-.655-11.343 11.332z" style="fill:var(--color2, #fd9222)"/></symbol>
</defs></svg>