<?xml version="1.0" standalone="no"?>
<!DOCTYPE svg PUBLIC "-//W3C//DTD SVG 20010904//EN"
 "http://www.w3.org/TR/2001/REC-SVG-20010904/DTD/svg10.dtd">
<svg version="1.0" xmlns="http://www.w3.org/2000/svg"
 width="768.000000pt" height="768.000000pt" viewBox="0 0 768.000000 768.000000"
 preserveAspectRatio="xMidYMid meet">
<metadata>
Created by potrace 1.14, written by Peter Selinger 2001-2017
</metadata>
<g transform="translate(0.000000,768.000000) scale(0.100000,-0.100000)"
fill="#000000" stroke="none">
<path d="M3772 7468 c-67 -10 -123 -38 -170 -87 -50 -50 -2871 -4680 -2895
-4751 -35 -100 -10 -221 63 -303 43 -49 3472 -2194 3550 -2220 105 -36 241 -4
317 75 17 18 231 359 474 758 243 399 761 1249 1152 1890 391 641 716 1185
724 1209 28 92 9 202 -48 279 -21 29 -84 78 -194 152 -197 133 -299 214 -386
307 -91 99 -123 166 -127 269 -6 130 42 269 169 493 38 65 43 83 47 151 6 106
-14 165 -82 235 -41 43 -277 195 -1211 778 -638 398 -1174 731 -1191 740 -45
23 -130 34 -192 25z m730 -1109 c309 -194 568 -357 575 -363 9 -8 -59 -128
-287 -501 -184 -302 -305 -490 -314 -489 -26 2 -1146 709 -1144 722 4 18 592
981 600 982 3 0 260 -158 570 -351z m1206 -755 c2 -1 -17 -62 -42 -135 -62
-184 -80 -292 -73 -449 9 -198 60 -350 177 -526 64 -96 272 -305 392 -394 l87
-65 -29 -50 c-16 -27 -34 -49 -39 -48 -11 3 -1131 701 -1145 713 -9 9 -1 22
356 608 l240 392 36 -21 c21 -13 38 -23 40 -25z m-2145 -785 c309 -193 568
-356 574 -363 10 -9 -51 -116 -283 -496 -162 -267 -299 -489 -304 -494 -11
-11 -1161 704 -1157 721 4 19 592 982 600 983 4 0 260 -158 570 -351z m1720
-1076 c312 -195 567 -357 567 -360 0 -3 -136 -228 -301 -500 -292 -479 -302
-493 -323 -480 -11 8 -268 168 -571 357 -302 189 -554 346 -559 351 -12 11
593 1001 608 992 6 -3 266 -165 579 -360z m-2660 -464 c309 -193 568 -357 575
-363 10 -10 -46 -109 -282 -496 -162 -266 -300 -488 -305 -493 -7 -7 -203 110
-585 349 -317 197 -576 362 -576 365 0 5 532 883 586 967 8 12 17 22 19 22 3
0 258 -158 568 -351z m1707 -1067 c316 -197 575 -362 577 -367 3 -10 -588
-986 -599 -989 -4 -1 -1096 677 -1151 715 -6 5 589 999 598 999 1 0 260 -161
575 -358z"/>
</g>
</svg>
